<?xml version="1.0" standalone="no"?>
<!DOCTYPE svg PUBLIC "-//W3C//DTD SVG 1.1//EN" "http://www.w3.org/Graphics/SVG/1.1/DTD/svg11.dtd">
<svg xmlns="http://www.w3.org/2000/svg">
<metadata>Copyright (C) 2017 by original authors @ fontello.com</metadata>
<defs>
<font id="fontello" horiz-adv-x="1000" >
<font-face font-family="fontello" font-weight="400" font-stretch="normal" units-per-em="1000" ascent="850" descent="-150" />
<missing-glyph horiz-adv-x="1000" />
<glyph glyph-name="add-small" unicode="&#xe800;" d="M680 377h-300v300c0 15-12 27-26 27-15 0-27-12-27-27v-300h-300c-15 0-27-12-27-27 0-15 12-27 27-27 0 0 0 0 0 0h300v-300c0-14 12-27 27-27 14 0 26 13 26 27v300h300c15 0 27 12 27 27 0 15-12 27-27 27 0 0 0 0 0 0z" horiz-adv-x="707" />

<glyph glyph-name="manage-v1" unicode="&#xe801;" d="M648-44h-382a17 17 0 0 0-18 17v382a17 17 0 0 0 11 16 18 18 0 0 0 19-4l178-172 181 163a18 18 0 0 0 19 3 17 17 0 0 0 10-15v-373a17 17 0 0 0-18-17z m-365 33h349v318l-165-146a18 18 0 0 0-23 0l-160 154v-325z m-120-33h-116a47 47 0 0 0-46 45v804a47 47 0 0 0 46 45h1034a47 47 0 0 0 46-45v-143h-34v143a12 12 0 0 1-12 12h-1034a12 12 0 0 1-12-12v-804a12 12 0 0 1 12-12h116v-33z m591 695l336 0a47 47 0 0 0 38-45v-678a47 47 0 0 0-46-47h-854a47 47 0 0 0-46 47v576a47 47 0 0 0 46 47h421a57 57 0 0 1 58 56 47 47 0 0 0 46 46m0 33a81 81 0 0 1-82-79 23 23 0 0 0-23-23h-420a81 81 0 0 1-81-79v-577a81 81 0 0 1 81-79h853a81 81 0 0 1 82 79v677a80 80 0 0 1-70 78l-339 0h0z" horiz-adv-x="1163" />

<glyph glyph-name="manage-v2" unicode="&#xe802;" d="M453 467a184 184 0 1 1 191-184 188 188 0 0 1-191 184z m0-335a151 151 0 0 0-17 300v-162l111-107a159 159 0 0 0-94-31z m119 53l-77 74h112a148 148 0 0 0-35-74z m-101 108v139a153 153 0 0 0 138-139h-138z m656 377v134a47 47 0 0 1-47 45h-1034a47 47 0 0 1-46-45v-804a47 47 0 0 1 46-45h101v-27a81 81 0 0 1 81-79h853a81 81 0 0 1 82 79v677a78 78 0 0 1-36 65z m-980-167v-514h-101a12 12 0 0 0-12 11v805a12 12 0 0 0 12 12h1034a12 12 0 0 0 12-12v-121l-338 0a81 81 0 0 1-82-79 23 23 0 0 0-23-23h-421a81 81 0 0 1-81-78z m981-575a47 47 0 0 0-46-46h-854a47 47 0 0 0-46 46v576a47 47 0 0 0 46 47h421a57 57 0 0 1 58 56 47 47 0 0 0 46 46l336 0a47 47 0 0 0 39-45v-677z" horiz-adv-x="1163" />

<glyph glyph-name="add" unicode="&#xe803;" d="M500 850a500 500 0 1 1 500-500 500 500 0 0 1-500 500z m0-970a470 470 0 1 0 470 470 471 471 0 0 0-470-470z m165 485h-150v150a15 15 0 0 1-30 0v-150h-150a15 15 0 1 1 0-30h150v-150a15 15 0 0 1 30 0v150h150a15 15 0 0 1 0 30z" horiz-adv-x="1000" />

<glyph glyph-name="alerte" unicode="&#xe804;" d="M806 250v267a336 336 0 0 1-672 0v-267l-134-266h306a168 168 0 0 1 329 0h305z m-336-370a138 138 0 0 0-133 104h266a138 138 0 0 0-133-104z m-421 133l112 224 3 6v274a306 306 0 0 0 612 0v-274l3-6 113-224h-843z" horiz-adv-x="940" />

<glyph glyph-name="partenaires" unicode="&#xe805;" d="M1143 579c-35 37-237 235-254 251a55 55 0 0 1-36 20 61 61 0 0 1-47-19c-35-32-78-77-78-77h0a44 44 0 0 1-13-19l-283 49c-4 0-97 19-148-31-17-16-70-236-70-238a103 103 0 0 1 35-79 76 76 0 0 1 75-14c57 17 88 97 98 131l126-12 317-304h0l42-41c8-9 30-37 9-59-18-18-53-6-59-2l-140 138a17 17 0 0 1-25 0 17 17 0 0 1 0-25l140-136a41 41 0 0 1 12-9 67 67 0 0 0-11-50 47 47 0 0 0-41-9l-149 144a17 17 0 0 1-24 0 17 17 0 0 1 0-24l148-144a68 68 0 0 0-15-48 42 42 0 0 0-36-7l-152 149a17 17 0 0 1-24 0 17 17 0 0 1 0-25l154-152a56 56 0 0 0-43-51 41 41 0 0 0-31 17l-590 589a17 17 0 0 1-24 0 17 17 0 0 1 0-25l155-155-51-50a68 68 0 0 1-20-41 80 80 0 0 1 21-70 93 93 0 0 1 62-23 66 66 0 0 1 15-50 84 84 0 0 1 62-23 64 64 0 0 1 12-50 91 91 0 0 1 69-28 82 82 0 0 1 18-61 76 76 0 0 1 58-23h5a55 55 0 0 1 38 17l54 57 93-93a76 76 0 0 1 53-27 51 51 0 0 1 10 0 89 89 0 0 1 69 77 68 68 0 0 1 47 17 93 93 0 0 1 26 63h1a73 73 0 0 1 55 21 93 93 0 0 1 22 64l6 0h2a70 70 0 0 1 52 20c34 35 17 79-8 107l-31 30 241 244a53 53 0 0 1 21 34 63 63 0 0 1-20 55z m-1020-362a33 33 0 0 0 10 20l51 51 59-59-63-65 0 0a67 67 0 0 0-46 13 47 47 0 0 0-11 40z m85-74h0v0l59 61 53-53-57-58a65 65 0 0 0-50 11 44 44 0 0 0-5 39z m78-77l59 61 54-54-57-59 0 0a72 72 0 0 0-54 14 41 41 0 0 0-2 38z m138-130a21 21 0 0 0-15-7 48 48 0 0 0-36 11 56 56 0 0 0-8 47 7 7 0 0 0 2 4l56 58 55-55z m451 337l-308 297a17 17 0 0 1-11 5l-146 13a17 17 0 0 1-19-13c-7-29-34-107-78-120a43 43 0 0 0-42 7 70 70 0 0 0-24 49c3 23 52 196 62 218 39 35 115 21 116 20l292-49a93 93 0 0 1 18-28c31-34 232-233 269-269z m246 248h0l-4-3-89-90c-35 34-238 234-268 267-15 17-16 28-10 33 0 0 44 47 79 77a32 32 0 0 0 19 10h0a21 21 0 0 0 13-7l2-2c2-2 218-213 253-251a33 33 0 0 0 11-23 19 19 0 0 0-6-11z" horiz-adv-x="1163" />

<glyph glyph-name="photo-profil-placeholder" unicode="&#xe806;" d="M800 816c12 0 16-3 36-42l5-11 36-71 10-19h130a110 110 0 0 0 111-109v-571a110 110 0 0 0-111-109h-872a110 110 0 0 0-110 109v571a110 110 0 0 0 110 109h131l9 19 37 71 5 10c18 36 23 43 36 43h437m0 34h-436c-41 0-54-34-73-72l-37-71h-109a144 144 0 0 1-145-143v-572a144 144 0 0 1 145-143h872a144 144 0 0 1 146 143v572a144 144 0 0 1-146 143h-109l-36 71c-21 42-32 72-72 72h0z m-220-305a251 251 0 1 0-256-251 253 253 0 0 0 256 251m0 34a285 285 0 1 1 289-284 287 287 0 0 1-289 284h0z" horiz-adv-x="1163" />

<glyph glyph-name="annonce-v1" unicode="&#xe807;" d="M724 725h-58v63h-91a200 200 0 0 1-291 0h-91v-63h-58a130 130 0 0 1-135-125v-625a130 130 0 0 1 135-125h589a130 130 0 0 1 136 125v626a130 130 0 0 1-136 124z m-90-74h-408v107h75l10 12a167 167 0 0 0 238 0l10-12h75v-107z m193-676a100 100 0 0 0-103-94h-589a100 100 0 0 0-103 95v625a100 100 0 0 0 103 95h58v-75h474v74h57a100 100 0 0 0 103-95v-625z m-160 428h-474a15 15 0 1 0 0 30h473a15 15 0 1 0 1-30z m0-135h-474a15 15 0 1 0 0 30h473a15 15 0 1 0 1-30z m0-137h-474a15 15 0 1 0 0 30h473a15 15 0 1 0 1-30z" horiz-adv-x="860" />

<glyph glyph-name="annonce-v2" unicode="&#xe808;" d="M1119 720h-249a47 47 0 0 0-27 13l-21 21-56 61a104 104 0 0 1-77 34h-320l-6 0h-319a44 44 0 0 1-44-44v-911a44 44 0 0 1 44-45h1075a44 44 0 0 1 44 45v781a44 44 0 0 1-44 45z m-378 72l56-61 11-11h-98a47 47 0 0 0-26 13l-22 21-55 61h82a70 70 0 0 0 52-23z m-160 0l56-61 11-11h-97a65 65 0 0 0-47 19l-23 22-50 54h96a70 70 0 0 0 54-23z m548-897a10 10 0 0 0-10-10h-1075a10 10 0 0 0-10 10v910a10 10 0 0 0 10 10h167v0h158a53 53 0 0 0 33-16l55-61 0 0 0 0 24-22a98 98 0 0 1 70-29h159l7 0v0h153l7 0v0h242a10 10 0 0 0 10-10v-780z m-109 703h-256a36 36 0 0 1-35-36v-184a36 36 0 0 1 35-35h256a36 36 0 0 1 35 35v184a36 36 0 0 1-35 36z m0-220l0 0h-256l0 0v184l0 0h256l0 0v-184z" horiz-adv-x="1163" />

<glyph glyph-name="piece-jointe" unicode="&#xe809;" d="M295-150a294 294 0 0 0-207 84 290 290 0 0 0-26 386l470 465a226 226 0 0 0 317 0 220 220 0 0 0 0-314l-444-439a156 156 0 0 0-219 0 152 152 0 0 0 0 216l395 391a15 15 0 1 0 21-22l-395-390a122 122 0 0 1 0-174 126 126 0 0 1 177 0l444 439a190 190 0 0 1 0 272 196 196 0 0 1-275 0l-469-464a260 260 0 0 1 25-345 267 267 0 0 1 348-21l518 509a15 15 0 1 0 20-21l-520-511a297 297 0 0 0-180-61z" horiz-adv-x="1001" />

<glyph glyph-name="search" unicode="&#xe80a;" d="M996-124l-271 270a420 420 0 1 1-21-21l270-271a15 15 0 0 1 22 22z m-966 555a389 389 0 1 0 666-273 9 9 0 0 1-4-4 389 389 0 0 0-662 277z" horiz-adv-x="1000" />

<glyph glyph-name="super-pro" unicode="&#xe80b;" d="M417 465a40 40 0 0 1-33 60h-34l183 61a40 40 0 0 1 27 37v188a40 40 0 0 1-40 40h-411a40 40 0 0 1-40-40v-189a40 40 0 0 1 27-37l183-61h-33a40 40 0 0 1-33-60 315 315 0 1 1 204 1z m-9 110v245h46v-230z m120 243a9 9 0 0 0 3-7v-189a9 9 0 0 0-7-9l-40-13v220h38a9 9 0 0 0 6-2z m-304 2v-246l-51 17v229h51z m-124-198v188a10 10 0 0 0 9 10h35v-220l-38 13a9 9 0 0 0-6 9z m154-58v256h124v-255l-37-13-26-8-26 8z m-8-70h138a10 10 0 0 0 9-9 9 9 0 0 0-1-5l-2-3h-144a15 15 0 0 1-6-1l-2 4a9 9 0 0 0-1 5 10 10 0 0 0 9 10z m69-615a284 284 0 0 0-205 88h52a9 9 0 0 1 6 7v0a230 230 0 0 1 0 76l0 6c-5 38-14 100 6 144a33 33 0 0 1 3 29 40 40 0 0 1-7 11 71 71 0 0 0-20 46v3a37 37 0 0 0 14 24 54 54 0 0 0 37 9 9 9 0 0 1 7-7 10 10 0 0 1 3-3l6-5a36 36 0 0 1 15-8l2 0a50 50 0 0 1-4-18h0a40 40 0 0 0-13 2l-2 0a11 11 0 0 1-12-6 10 10 0 0 1 3-12 40 40 0 0 1 15-12 50 50 0 0 1-10-46c0-4 4-16 42-53 11-11 22-20 28-27-15 7-34 17-36 18a9 9 0 0 1-14-7s-3-26-5-37a384 384 0 0 1 0-128 9 9 0 0 1 3-5h0l0-1h175a9 9 0 0 1 6 6 283 283 0 0 1 6 88c-2 28-4 80-4 82a9 9 0 0 1-13 8l-34-13a276 276 0 0 1 62 67 45 45 0 0 1-8 48 37 37 0 0 1 15 12 10 10 0 0 1 3 9 11 11 0 0 1-9 9 9 9 0 0 1-7-1 13 13 0 0 0-8-2l-4 2a50 50 0 0 1-5 17l3 0a36 36 0 0 1 16 9 41 41 0 0 0 11 7 9 9 0 0 1 3 15l0 0h0a55 55 0 0 0 43-28c14-25 8-34 1-43l0-2a60 60 0 0 1-17-55l0 0c20-44 11-111 5-148l-1-7a314 314 0 0 1-5-73 9 9 0 0 1 4-6l0 0h52a284 284 0 0 0-204-88z m-8 220a13 13 0 0 1 6-4 14 14 0 0 1 9 0 13 13 0 0 1 4-2 19 19 0 0 1 18 11 29 29 0 0 1 15 13l33 13c0-19 3-50 4-69a284 284 0 0 0-4-73h-151a428 428 0 0 0 3 111c0 6 2 16 3 24 12-5 30-14 40-18a62 62 0 0 1 20-5z m-9 23a9 9 0 0 1 4 5 78 78 0 0 1 3 12l1-1a9 9 0 0 1 14 1l2 3 5 4 0 0 6-4a35 35 0 0 1 22-5l-5-2a9 9 0 0 1-5-5 16 16 0 0 0-6-6 9 9 0 0 1-9-5h0a9 9 0 0 1-11 0l0 0a9 9 0 0 1-8 1 25 25 0 0 0-13 2z m186-134h0a503 503 0 0 0 5 56l1 8c6 38 16 108-6 157a44 44 0 0 0 13 37l2 2c8 12 20 28 0 64a68 68 0 0 1-75 37 14 14 0 0 1-9-10 16 16 0 0 1 2-11l-6-5a24 24 0 0 0-7-4 24 24 0 0 1-19-12 17 17 0 0 1 3-15 32 32 0 0 0 3-12 9 9 0 0 1 0-2 17 17 0 0 1 9-12 12 12 0 0 1-3-4 17 17 0 0 1 4-16 31 31 0 0 0 10-31l0 0a228 228 0 0 0-28-34 151 151 0 0 0-29-26 17 17 0 0 0-10 1l-11 8a9 9 0 0 1-3 1 12 12 0 0 1-6 0 13 13 0 0 1-11 6 16 16 0 0 1-14-13v-1a12 12 0 0 1-9-4 10 10 0 0 1-2-5v0c-40 36-58 60-60 65v0a36 36 0 0 0 9 33 16 16 0 0 1 3 16 13 13 0 0 1-2 3 20 20 0 0 1 9 13 10 10 0 0 1 0 2 32 32 0 0 0 3 12 17 17 0 0 1 3 15 23 23 0 0 1-19 12 15 15 0 0 0-4 3 9 9 0 0 1-4 10h0a9 9 0 0 1-7 8 80 80 0 0 1-70-12 56 56 0 0 1-20-37v-4a89 89 0 0 1 26-58 60 60 0 0 0 4-5 15 15 0 0 0-3-14c-23-49-13-115-8-155l0-6a242 242 0 0 0 2-58h-43v0l-3 0h-14a286 286 0 0 0 134 446l32 11h120l33-11a286 286 0 0 0 131-449h-56z" horiz-adv-x="630" />

<glyph glyph-name="supprimer" unicode="&#xe80c;" d="M576 406a16 16 0 0 1-16-15v-385a16 16 0 0 1 32 0v385a16 16 0 0 1-16 15z m-145 0a16 16 0 0 1-16-15v-385a16 16 0 0 1 32 0v385a16 16 0 0 1-16 15z m-148 0a16 16 0 0 1-16-15v-385a16 16 0 0 1 33 0v385a16 16 0 0 1-17 15z m511 319h-198v63a64 64 0 0 1-66 62h-199a64 64 0 0 1-66-62v-63h-198a64 64 0 0 1-67-62v-62a64 64 0 0 1 67-63v-687h727v687a64 64 0 0 1 66 62v63a64 64 0 0 1-66 62z m-463 96h198a33 33 0 0 0 34-33v-62h-267v62a33 33 0 0 0 35 33z m-233-940v655h664v-655h-664z m730 720a33 33 0 0 0-34-33h-32v-1h-664v1h-32a33 33 0 0 0-34 33v62a33 33 0 0 0 34 33h230v0h266v0h232a33 33 0 0 0 34-33v-62z" horiz-adv-x="860" />

<glyph glyph-name="visibilite" unicode="&#xe80d;" d="M1741 406a1321 1321 0 0 1-233 221c-195 146-408 222-615 222s-420-76-615-222a1314 1314 0 0 1-234-221l-44-57 44-56a1314 1314 0 0 1 234-222c195-145 408-222 615-222s420 77 615 222a1321 1321 0 0 1 233 222l44 56z m-48-75a1254 1254 0 0 0-222-210c-185-137-385-210-580-210s-394 71-579 210a1247 1247 0 0 0-222 210l-15 19 15 19a1247 1247 0 0 0 222 210c185 137 385 210 579 210s395-71 580-210a1253 1253 0 0 0 222-209l15-19z m-800 357a338 338 0 1 1 332-338 335 335 0 0 1-332 338z m0-614a277 277 0 1 0 272 276 275 275 0 0 0-272-276z m0 486v-61a148 148 0 0 0 147-149h60a208 208 0 0 1-207 210z" horiz-adv-x="1786" />

<glyph glyph-name="tel" unicode="&#xe80e;" d="M355-58c18 0 34 15 34 33 0 19-16 34-34 34-19 0-35-15-35-34 0-18 16-33 35-33m156 892h-313c-68 0-124-54-124-121v-727c0-67 56-121 124-121h313c69 0 124 54 124 121v727c0 67-55 121-124 121m-313-29h313c45 0 82-30 92-71h-497c10 41 48 71 92 71m408-819c0-51-43-92-95-92h-313c-52 0-95 41-95 92v56h503l0-56 0 0z m0 85h-503v634h503l0-634 0 0z" horiz-adv-x="707" />

<glyph glyph-name="user" unicode="&#xe80f;" d="M353 242c208 0 278-145 299-211h-598c39 131 163 218 299 211m0 45c-168 6-316-110-350-274-2-12 6-24 18-26 1 0 3 0 4 0h657c13 0 22 10 22 22 0 3 0 6-1 9-36 163-183 276-350 269l0 0v0l0 0z m0 357c75 0 136-61 136-136s-61-135-136-135c-75 0-135 60-135 135 0 75 60 136 135 136m0 45c-100 0-181-81-181-181 0-100 81-181 181-181s181 81 181 181c0 100-81 181-181 181l0 0z" horiz-adv-x="707" />

<glyph glyph-name="help-small" unicode="&#xe810;" d="M354 850c-179 0-324-145-325-324 3-25 25-44 50-41 22 2 39 19 41 41 0 129 105 234 234 234s234-105 234-234c0-130-105-234-234-234l0 0c-25 0-46-21-46-46v-175c-2-25 16-47 41-50s47 16 50 41c0 3 0 6 0 9v133c177 24 302 188 277 366-22 161-160 281-322 280z m0-901c27 0 49-22 49-50s-22-49-49-49-50 22-50 49 22 50 50 50z" horiz-adv-x="707" />

<glyph glyph-name="help" unicode="&#xe811;" d="M354 683c183 0 332-149 332-333s-149-332-332-332-333 148-333 332c0 184 149 332 333 333m0 21c-196 0-354-159-354-354 0-195 158-354 354-354s353 159 353 354l0 0c0 195-158 354-353 354l0 0z m0-237c-42 0-76-34-76-76 0-6 5-10 10-10 6 0 11 4 11 10 0 30 25 55 55 55 30 0 54-25 54-55s-24-55-54-55l0 0c-6 0-11-4-11-10v-41c0-6 5-11 11-11 6 0 10 5 10 11v31c42 4 73 41 69 82-4 41-39 71-79 69z m0-211c6 0 11-5 11-11s-5-12-11-12-12 5-12 12 5 11 12 11z" horiz-adv-x="707" />

<glyph glyph-name="informations" unicode="&#xe812;" d="M354 704c-196 0-354-159-354-354 0-195 158-354 354-354s353 159 353 354-158 354-353 354l0 0z m0-686c-184 0-333 148-333 332 0 184 149 333 333 333s332-149 332-333c0-184-149-332-332-333v1z m0 464c7 0 12-6 12-13 0-7-5-12-12-12-7 0-13 5-13 12 0 7 6 13 13 13z m0-58c-6 0-11-5-11-11v-195c0-6 5-10 11-10s10 4 10 10v195c0 6-4 11-10 11 0 0 0 0 0 0z" horiz-adv-x="707" />

<glyph glyph-name="comment-ça-marche" unicode="&#xe813;" d="M360 469c7 0 13-6 13-12s-6-13-13-13-12 6-12 13 5 12 12 12z m-6 213c183 0 332-149 332-332 0-184-149-333-332-333s-333 149-333 333c0 183 149 332 333 332m0 21c-196 0-354-158-354-353 0-196 158-354 354-354s353 158 353 354c0 195-158 353-353 353l0 0 0 0z m26-443c-24-27-41-18-41-18l-2 1c-3 1-5 3-6 6-14 31 18 125 31 158 2 6-1 13-6 15-2 1-4 1-6 1l-23-3c-6-1-10-7-10-13 1-6 7-10 13-10h4c-13-37-39-121-23-157 3-8 9-15 17-18 6-3 12-5 19-4 20 1 38 10 49 26 5 5 4 12 0 16-5 5-12 4-16 0l0 0z" horiz-adv-x="707" />

<glyph glyph-name="location" unicode="&#xe814;" d="M609 698c-55 62-142 93-256 93-115 0-201-31-256-93-85-95-69-230-69-231 21-216 214-455 313-551l9-9 9 9c191 187 302 378 321 551 0 5 13 138-71 231m45-229l0 0c-17-164-122-346-304-526-99 99-277 324-297 527 0 1-13 126 63 211 50 56 130 85 237 85 107 0 187-29 237-85 77-84 65-206 64-212m-299 152c-87 0-158-70-158-156 0-86 71-157 158-157 87 0 158 71 158 157 0 86-71 156-158 156m0-287c-73 0-132 59-132 131 0 72 59 131 132 131 73 0 133-59 133-131 0-72-60-131-133-131" horiz-adv-x="707" />

<glyph glyph-name="home" unicode="&#xe815;" d="M51 350v-326c0 0-1-19 18-19 22 0 212 1 212 1l0 174c0 0-3 28 25 28h88c33 0 31-28 31-28l-1-174h208c23 0 22 24 22 24v320l-292 261-311-261z m583-321c0 0 0-1 0-2-1 0-1 0-2 0h-187l0 152c0 5 0 21-12 34-7 7-19 16-39 16h-88c-18 0-28-8-34-14-12-13-12-31-11-36l-1-153c-46 0-159 0-188 0h-1v315l290 243 273-243v-311-1l0 0z m59 369l-329 295-350-296c-4-4-5-10-1-15 2-2 4-3 7-3 3 0 5 0 7 2l337 285 316-283c4-4 10-3 14 1 4 4 4 10-1 14m-14 51v171h-83l0-101 83-70z m-21 150v-106l-41 35-1 71h42z" horiz-adv-x="707" />

<glyph glyph-name="fermer" unicode="&#xe816;" d="M559 350l429 430a42 42 0 1 1-58 58l-430-429-429 429a42 42 0 0 1-59-58l430-430-429-430a42 42 0 1 1 59-58l429 430 430-430a42 42 0 1 1 58 58z" horiz-adv-x="1000" />

<glyph glyph-name="edit" unicode="&#xe817;" d="M684 568l-112 111c-11 11-23 17-36 17-14 0-27-6-39-18l-426-426-61-210c-6-24 4-39 24-39 4 0 8 1 13 2l210 61 426 426c23 24 23 53 1 76m-642-543c-3-1-6-1-8-1-3 0-4 1-4 1 0 0-2 3 0 12l54 187 145-144-187-55z m207 63l-156 157 302 302 157-156-303-303z m419 419l-102-102-156 157 101 101c8 8 17 12 25 12 9 0 17-6 22-11l111-111c15-15 14-31-1-46" horiz-adv-x="707" />

<glyph glyph-name="demande-de-devis" unicode="&#xe818;" d="M1000 413c0 241-224 437-500 437s-500-196-500-437c0-138 73-261 187-342v-221l220 133a563 563 0 0 1 208 4c-4 4-8 8-12 13a226 226 0 0 1 367 260 388 388 0 0 1 30 153z m-408-400a540 540 0 0 0-92-8 547 547 0 0 0-89 7l-10 2-10-5-174-106v184l-13 9c-111 78-175 194-175 317 0 225 211 408 471 408s470-183 470-408a357 357 0 0 0-22-123 226 226 0 0 1-356-277h0z m378 133a196 196 0 1 0-196 197 197 197 0 0 0 196-197z m-188 106a100 100 0 0 0 76-35 11 11 0 0 1 7-4 11 11 0 0 1 9 2 11 11 0 0 1 1 16 122 122 0 0 1-93 43 120 120 0 0 1-120-97h-4a11 11 0 1 1 0-22h2c0-3 0-8 0-9s0-8 0-9h-2a11 11 0 1 1 0-23h4a117 117 0 0 1 120-92 122 122 0 0 1 93 42 11 11 0 0 1-1 16h0a11 11 0 0 1-16-1 100 100 0 0 0-75-35 95 95 0 0 0-98 70h155a11 11 0 0 1 0 23h-158s0 8 0 9 0 6 0 9h157a11 11 0 0 1 0 22h-154a98 98 0 0 0 97 75z" horiz-adv-x="1000" />

<glyph glyph-name="demande-cdiscount" unicode="&#xe819;" d="M1000 413c0 241-224 437-500 437s-500-196-500-437c0-138 73-261 187-342v-221l219 133a563 563 0 0 1 207 4c-4 4-7 8-11 12a226 226 0 0 1 366 260 388 388 0 0 1 32 154z m-408-400a540 540 0 0 0-92-8 547 547 0 0 0-89 7l-10 2-10-5-174-106v184l-13 9c-111 78-175 194-175 317 0 225 211 408 471 408s470-183 470-408a357 357 0 0 0-22-123 226 226 0 0 1-356-277h0z m378 133a196 196 0 1 0-196 196 197 197 0 0 0 197-196z m-136-47c-7-3-13-7-20-10a46 46 0 0 0-40-3 46 46 0 0 0-22 20 80 80 0 0 0-4 73 46 46 0 0 0 62 25 183 183 0 0 0 20-12 32 32 0 0 1 29-2 23 23 0 0 1 11 37 113 113 0 0 1-13 13 103 103 0 0 1-66 24 107 107 0 0 1-88-39 120 120 0 0 1-26-80 116 116 0 0 1 10-52 113 113 0 0 1 107-66 97 97 0 0 1 64 22 75 75 0 0 1 16 19 18 18 0 0 1-4 25 34 34 0 0 1-36 6z" horiz-adv-x="1000" />

<glyph glyph-name="deconnexion" unicode="&#xe81a;" d="M545 686v-69a367 367 0 1 0-232-4v70a435 435 0 1 1 232 3z m-110-292a34 34 0 0 1 34 33v390a34 34 0 0 1-68 0v-390a34 34 0 0 1 34-33z" horiz-adv-x="870" />

<glyph glyph-name="compte" unicode="&#xe81b;" d="M500 288c138 0 184-97 198-140h-397a196 196 0 0 0 199 140m0 29a228 228 0 0 1-233-182 15 15 0 0 1 15-17h436a15 15 0 0 1 15 15 14 14 0 0 1-1 6 228 228 0 0 1-232 178h0z m0 237a90 90 0 1 0-90-90 90 90 0 0 0 90 90m0 30a120 120 0 1 1 120-120 120 120 0 0 1-120 120h0z m0 236a470 470 0 1 0-471-470 471 471 0 0 0 470 470m0 30a500 500 0 1 1 500-500 500 500 0 0 1-500 500h0z" horiz-adv-x="1000" />

<glyph glyph-name="check" unicode="&#xe81c;" d="M500 850a500 500 0 1 1 500-500 500 500 0 0 1-500 500z m0-970a470 470 0 1 0 470 470 471 471 0 0 0-470-470z m206 648a15 15 0 0 1-20-5c-69-120-174-303-185-321a11 11 0 0 0-7-3 12 12 0 0 0-9 5l-120 110a15 15 0 1 1-20-22l119-109a40 40 0 0 1 28-13h2a40 40 0 0 1 28 11c2 2 5 4 190 327a15 15 0 0 1-6 20z" horiz-adv-x="1000" />

<glyph glyph-name="centre-aide" unicode="&#xe81d;" d="M895 44a500 500 0 0 1 0 612l3 3a30 30 0 0 1 0 42l-47 47a30 30 0 0 1-41 0l-3-3a500 500 0 0 1-612 0l-3 3a30 30 0 0 1-42 0l-48-47a30 30 0 0 1 0-42l3-3a500 500 0 0 1 0-612l-3-3a30 30 0 0 1 0-42l47-47a30 30 0 0 1 42 0l3 3a500 500 0 0 1 612 0l3-3a30 30 0 0 1 42 0l47 48a30 30 0 0 1 0 42z m75 306a468 468 0 0 0-96-285l-130 130a288 288 0 0 1 0 309l130 130a468 468 0 0 0 96-284z m-604-182l-48 48a29 29 0 0 1-40 1 257 257 0 0 0 0 266 29 29 0 0 1 40 1l48 48a29 29 0 0 1 1 40 257 257 0 0 0 266 0 29 29 0 0 1 2-40l47-48a29 29 0 0 1 40-1 257 257 0 0 0 0-266 29 29 0 0 1-40-1l-47-48a29 29 0 0 1-2-40 257 257 0 0 0-266 0 29 29 0 0 1-1 40z m485 537l3-3c7-7 14-15 22-23l-22-21-128-129-21-21a261 261 0 0 1-48 48l21 21 129 128 21 22c9-7 17-15 23-22z m-352 115a468 468 0 0 0 285-96l-130-130a288 288 0 0 1-309 0l-130 130a468 468 0 0 0 285 96z m-355-118l3 3c7 7 15 14 23 21l21-21 129-128 21-22a261 261 0 0 1-48-47l-21 21-128 128-22 22c9 8 16 16 23 23z m-115-352a468 468 0 0 0 96 285l130-130a288 288 0 0 1 0-309l-130-130a468 468 0 0 0-95 284z m115-308l128 129 21 21a261 261 0 0 1 48-48l-21-21-129-128-20-22c-8 7-16 15-23 22l-2 3c-8 7-15 15-22 23z m355-162a468 468 0 0 0-285 96l130 130a288 288 0 0 1 309 0l130-130a468 468 0 0 0-283-96z m352 115c-7-7-15-14-23-22l-21 22-129 128-21 21a261 261 0 0 1 48 48l21-21 128-129 22-21c-7-8-15-16-22-23z" horiz-adv-x="1000" />

<glyph glyph-name="calendar" unicode="&#xe81e;" d="M700 470v98c0 36-29 64-65 64h-94v53c0 6-5 10-11 10-5 0-10-4-10-10v-53h-329v53c0 6-5 10-10 10-6 0-11-4-11-10v-53h-97c-35 0-64-28-64-64v-93h0v-20h0v-387c0-35 29-64 64-64h562c36 0 65 29 65 64v395 0 0 0 0 7 0m-671 98c0 24 20 44 44 44h97v-29c0-6 5-10 11-10 5 0 10 4 10 10v29h329v-36c0-6 5-11 10-11 6 0 11 5 11 11v36h94c24 0 44-20 44-44v-93h-650v93z m606-544h-562c-24 0-44 20-44 44v387h650v-387c0-24-20-44-44-44m-398 353c-12 0-21-10-21-21s9-22 21-22c12 0 22 10 22 22s-10 21-22 21m105 0c-12 0-22-10-22-21s10-22 22-22c12 0 21 10 21 22s-9 21-21 21m117 0c-12 0-22-10-22-21s10-22 22-22c12 0 21 10 21 22s-9 21-21 21m119 0c-12 0-22-10-22-21s10-22 22-22c12 0 21 10 21 22s-9 21-21 21m-447-74c-12 0-22-10-22-22 0-12 10-21 22-21 12 0 21 9 21 21 0 12-9 22-21 22m106 0c-12 0-21-10-21-22 0-12 9-21 21-21 12 0 22 9 22 21 0 12-10 22-22 22m105 0c-12 0-22-10-22-22 0-12 10-21 22-21 12 0 21 9 21 21 0 12-9 22-21 22m117 0c-12 0-22-10-22-22 0-12 10-21 22-21 12 0 21 9 21 21 0 12-9 22-21 22m119 0c-12 0-22-10-22-22 0-12 10-21 22-21 12 0 21 9 21 21 0 12-9 22-21 22m-447-74c-12 0-22-10-22-22s10-21 22-21c12 0 21 9 21 21s-9 22-21 22m106 0c-12 0-21-10-21-22s9-21 21-21c12 0 22 9 22 21s-10 22-22 22m105 0c-12 0-22-10-22-22s10-21 22-21c12 0 21 9 21 21s-9 22-21 22m117 0c-12 0-22-10-22-22s10-21 22-21c12 0 21 9 21 21s-9 22-21 22m119 0c-12 0-22-10-22-22s10-21 22-21c12 0 21 9 21 21s-9 22-21 22m-447-74c-12 0-22-10-22-22 0-12 10-21 22-21 12 0 21 9 21 21 0 12-9 22-21 22m106 0c-12 0-21-10-21-22 0-12 9-21 21-21 12 0 22 9 22 21 0 12-10 22-22 22m105 0c-12 0-22-10-22-22 0-12 10-21 22-21 12 0 21 9 21 21 0 12-9 22-21 22" horiz-adv-x="707" />

<glyph glyph-name="burger-menu" unicode="&#xe81f;" d="M964 774h-927a38 38 0 0 0 0 76h927a38 38 0 0 0 0-76z m0-457h-927a38 38 0 0 0 0 75h927a38 38 0 0 0 0-75z m0-467h-927a38 38 0 0 0 0 75h927a38 38 0 0 0 0-75z" horiz-adv-x="1000" />

<glyph glyph-name="boite-de-reception-v2" unicode="&#xe820;" d="M1054 849h-945a109 109 0 0 1-109-109v-782a109 109 0 0 1 109-109h945a109 109 0 0 1 109 109v783a109 109 0 0 1-109 108z m-945-34h945a75 75 0 0 0 74-75v-73l-3 6-540-342-547 343-4-6v73a75 75 0 0 0 75 74z m945-931h-945a75 75 0 0 0-74 75v676l550-345 543 345v-676a75 75 0 0 0-74-74z" horiz-adv-x="1163" />

<glyph glyph-name="boite-de-reception-v1" unicode="&#xe821;" d="M526 524h-243a15 15 0 0 0 0 30h243a15 15 0 0 0 0-30z m190-133h-433a15 15 0 0 0 0 30h432a15 15 0 0 0 1-30z m0-136h-433a15 15 0 0 0 0 30h432a15 15 0 0 0 1-30z m-216 565c260 0 470-183 470-407s-211-408-470-408a547 547 0 0 0-89 7l-10 2-10-5-174-106v184l-12 9c-112 78-175 193-175 317 0 225 211 408 470 408m0 29c-276 0-500-196-500-437 0-138 73-261 188-342v-221l220 133a573 573 0 0 1 93-8c276 0 500 196 500 438s-224 437-500 437h0z" horiz-adv-x="1000" />

<glyph glyph-name="blog" unicode="&#xe822;" d="M284 403h432a15 15 0 0 1 0 30h-432a15 15 0 0 1 0-30z m-190 299h620a15 15 0 0 1 0 30h-620a15 15 0 1 1 0-30z m190-435h432a15 15 0 0 1 0 30h-432a15 15 0 0 1 0-30z m607 434a15 15 0 1 1-11 4 16 16 0 0 1 11-4z m-56 0a15 15 0 1 1-11 4 16 16 0 0 1 11-4z m-55 0a15 15 0 1 1-11 4 16 16 0 0 1 11-4z m220-84v233h-1000v-233h0v-30h0v-557h232v-180l337 180h431v557h0v30h0z m-30-558h-408l-7-3-293-157v160h-232v528h940v-528z m0 558h-940v203h940v-203z" horiz-adv-x="1000" />

<glyph glyph-name="add-circle" unicode="&#xe823;" d="M500 850a500 500 0 0 0 500-500 500 500 0 1 0-500 500z m165-485h-150v150a15 15 0 0 1-30 0v-150h-150a15 15 0 1 1 0-30h150v-150a15 15 0 0 1 30 0v150h150a15 15 0 0 1 0 30z" horiz-adv-x="1000" />

<glyph glyph-name="down-open" unicode="&#xe824;" d="M939 399l-414-413q-10-11-25-11t-25 11l-414 413q-11 11-11 26t11 25l93 92q10 11 25 11t25-11l296-296 296 296q11 11 25 11t26-11l92-92q11-11 11-25t-11-26z" horiz-adv-x="1000" />
</font>
</defs>
</svg>
